<mxfile host="app.diagrams.net" modified="2024-03-01T07:42:47.598Z" agent="Mozilla/5.0 (Windows NT 10.0; Win64; x64) AppleWebKit/537.36 (KHTML, like Gecko) Chrome/120.0.0.0 Safari/537.36" version="24.0.0" etag="90DkyFzyXqJFHuoxCkyl" type="github">
  <diagram name="第 1 页" id="btT4Vg4YWJnxnvoGMOvL">
    <mxGraphModel>
      <root>
        <mxCell id="0" />
        <mxCell id="1" parent="0" />
      </root>
    </mxGraphModel>
  </diagram>
</mxfile>
